Coordinates
version=1
nRows=6
nColumns=36
inDegrees=yes

Units are S.I. units (second, meters, Newtons, ...)
If the header above contains a line with 'inDegrees', this indicates whether rotational values are in degrees (yes) or radians (no).

endheader
time	pelvis_tilt	pelvis_list	pelvis_rotation	pelvis_tx	pelvis_ty	pelvis_tz	hip_flexion_r	hip_adduction_r	hip_rotation_r	knee_angle_r	knee_angle_r_beta	ankle_angle_r	subtalar_angle_r	mtp_angle_r	hip_flexion_l	hip_adduction_l	hip_rotation_l	knee_angle_l	knee_angle_l_beta	ankle_angle_l	subtalar_angle_l	mtp_angle_l	lumbar_extension	lumbar_bending	lumbar_rotation	arm_flex_r	arm_add_r	arm_rot_r	elbow_flex_r	pro_sup_r	arm_flex_l	arm_add_l	arm_rot_l	elbow_flex_l	pro_sup_l
     30.11666670	      2.69941311	      0.55265228	     -9.35906054	      0.45927092	      0.91786744	      0.74253473	     14.89204008	     -4.97392863	      5.22706894	     63.13834729	      1.10197204	     19.33178495	    -11.63637139	     -7.49999987	     17.51514390	     -0.22989899	     -7.70125524	     22.25972019	      0.38850541	     -0.89399682	     -7.47926112	     -7.49999987	     -6.68892205	     -2.87509691	      4.20817992	     13.07633415	    -16.25814541	      2.48244519	     48.63083240	     83.95757764	      4.77391816	     -6.05755306	     -0.58365464	     10.42369859	     80.59591509
     30.13333330	      2.99226974	      1.00009114	     -9.35911545	      0.45969170	      0.92011691	      0.74316457	     15.82784224	     -4.61386519	      6.27267758	     64.31358646	      1.12248384	     19.15219080	    -12.41295525	     -7.49999987	     15.83359270	      0.55993013	     -7.59903703	     22.40132880	      0.39097694	      0.59931354	     -8.28418432	     -7.49999987	     -7.17027454	     -3.44417999	      3.66758527	     11.73886604	    -15.51752558	      2.59676296	     47.43929921	     83.98050829	      6.31343690	     -6.42088044	     -0.13280869	     11.38827701	     80.69244556
     30.15000000	      3.21236153	      1.31399317	     -9.38621637	      0.46302362	      0.92378168	      0.74526886	     17.05130481	     -4.09473680	      6.78063691	     65.63101135	      1.14547724	     18.69201927	    -12.79324954	     -7.49999987	     13.89593204	      1.21037431	     -7.33470601	     22.12448780	      0.38614516	      2.29194418	     -9.05139407	     -7.49999987	     -7.51795562	     -3.88789126	      3.08645393	     10.21147118	    -14.73754579	      2.73123753	     46.10638819	     83.94827417	      7.58187081	     -6.84304323	      0.26219465	     12.35946737	     80.75152361
     30.16666670	      3.59503916	      1.59917967	     -9.61943131	      0.46654650	      0.92772611	      0.74784550	     18.12659284	     -3.52981558	      6.92590681	     66.36576628	      1.15830113	     17.96437198	    -13.11638041	     -7.49999987	     11.44776008	      1.82106402	     -7.36374399	     21.17334113	      0.36954452	      3.24198037	     -9.29861635	     -7.49999987	     -7.98694125	     -4.42160736	      2.77542871	      8.91216144	    -13.64519889	      2.41781912	     43.29080411	     83.90290394	      8.77069298	     -7.46233374	      1.42155391	     13.72341510	     81.02388754
     30.18333330	      4.04719000	      1.59774698	     -9.86859438	      0.46929130	      0.92967846	      0.74970570	     18.83765498	     -2.80480739	      6.48957153	     66.23216786	      1.15596940	     17.03370724	    -12.77997112	     -7.49999987	      8.86183182	      2.23887782	     -7.12858924	     20.10013667	      0.35081356	      5.03031486	     -9.34178339	     -7.49999987	     -8.28072130	     -4.36421218	      1.95570001	      7.99892837	    -12.24296941	      1.72661744	     40.32744977	     83.86455659	      9.30666182	     -8.35346825	      3.36398032	     15.27578286	     81.31608751
     30.20000000	      4.15787493	      1.63844035	     -9.96901014	      0.47187950	      0.92876868	      0.75089475	     19.53710528	     -2.19343984	      5.86082182	     65.25690020	      1.13894777	     15.99564682	    -12.12895286	     -7.49999987	      6.79300766	      2.73384428	     -6.58345867	     19.12725512	      0.33383358	      6.43625682	     -9.29347563	     -7.49999987	     -8.11147942	     -4.44440744	      1.66543398	      6.05359775	    -11.49786156	      1.56201493	     38.48768545	     83.81505070	     10.08826161	     -9.00860658	      3.77541826	     16.63795398	     81.20142794
